<?xml version="1.0" encoding="utf-8"?>
<!-- Generator: Adobe Illustrator 19.0.0, SVG Export Plug-In . SVG Version: 6.00 Build 0)  -->
<svg version="1.1" id="Layer_1" xmlns="http://www.w3.org/2000/svg" xmlns:xlink="http://www.w3.org/1999/xlink" x="0px" y="0px"
	 viewBox="0 0 566.9 566.9" style="enable-background:new 0 0 566.9 566.9;" xml:space="preserve">
<style type="text/css">
	.st0{fill:#5C4AA4;}
	.st1{fill:#A4295E;}
	.st2{fill:#231F20;}
</style>
<g id="XMLID_470_">
	<g id="XMLID_456_">
		<path id="XMLID_457_" class="st0" d="M95.9,286.4c0,97.6,73.7,178.3,168.4,189.4v37.1C149.3,501.7,59,404.4,59,286.4
			S149.3,71.1,264.3,59.9V97C169.6,108.1,95.9,188.8,95.9,286.4z"/>
	</g>
	<g id="XMLID_454_">
		<path id="XMLID_455_" class="st1" d="M514.3,286.4c0,118-90.2,215.3-205.3,226.5v-37.1c94.7-11.1,168.4-91.8,168.4-189.4
			S403.7,108.1,309.1,97V59.9C424.1,71.1,514.3,168.4,514.3,286.4z"/>
	</g>
	<circle id="XMLID_453_" class="st2" cx="200.4" cy="274.9" r="63.9"/>
	<path id="XMLID_452_" class="st2" d="M559,524.6c-0.6,1.6-1.3,3.4-2.3,4.9c-0.6,0.8-1.1,1.6-1.7,2.4c-0.5,0.5,0.4-0.4-1.2,1.3
		l-0.2,0.2l-0.4,0.4c-0.2,0.2-0.2,0.2-0.5,0.5c-0.5,0.4-1,0.8-1.5,1.1c-1,0.7-2.2,1.5-2.9,1.8c-0.8,0.4-1.6,0.8-2.4,1.2l-2.3,0.8
		c-6.1,1.8-10.8,1.5-15.1,1.2c-4.3-0.4-8.1-1.2-11.8-2.1c-7.3-1.9-14.1-4.4-20.8-7c-13.3-5.5-26.1-12.3-38.9-19.5
		c-17-9.6-34-20.1-51-31.6c-8.7-5.8-17.4-11.9-26-18.2c-2.5-1.8-4.9-3.5-7.4-5.4c-10.4-7.6-20.8-15.3-31.2-23.4
		c-6.4-5-12.8-10-19.3-15.1c-6.3-5.2-12.7-10.4-19.1-15.7c-25.4-21.2-50.7-43.3-75.5-65.9c-0.9-0.9-1.8-1.7-2.8-2.6
		c-23.5-22.2-46.5-44.8-68.7-67.6c-5-5.2-10-10.3-14.8-15.5c-0.8-0.8-1.5-1.6-2.3-2.4c-5.5-6.1-11-12.1-16.5-18.2
		c-4.4-4.9-8.7-9.7-12.9-14.6c-6.3-7.2-12.5-14.5-18.6-21.7c-2.7-3.1-5.3-6.3-7.8-9.4c-17.4-21.1-33.2-42.5-47.3-64.2
		c-8-12.5-15.6-24.9-21.5-38.6C11.4,74.9,8.6,67.9,7.2,59c-0.6-4.4-1.1-9.7,1-16.5c0.6-1.7,1.4-3.5,2.5-5.2c0.5-0.8,1.1-1.7,1.8-2.5
		l1-1.2c0.6-0.6,1-1,1.1-1.1c0,0,0,0,0,0c0,0,0,0,0,0c0,0,0,0,0.1-0.1l0.3-0.2l0.9-0.7c0.8-0.6,2-1.4,3-2c2.5-1.5,3.7-1.6,5.3-2.2
		c6.3-1.6,10.8-1,14.8-0.4c4,0.7,7.5,1.7,10.8,2.8c6.5,2.3,12.2,4.9,17.6,7.7c10.7,5.6,20,11.6,28.6,17.4
		c17.2,11.5,31.1,22.7,42.5,32c6.4,5.2,11.9,9.9,16.5,14.1c-1.4,1-2.9,2.1-4.3,3.1c-4.7-3.4-10.1-7.2-16.2-11.4
		c-12-8.2-26.7-18-44.1-28.1c-8.7-5.1-18.2-10.2-28.5-14.8c-5.1-2.3-10.5-4.4-16.1-6.1c-2.8-0.8-5.7-1.5-8.6-1.8
		c-2.9-0.4-5.9-0.4-8.4,0.4c-0.6,0.3-1.4,0.4-1.8,0.8l-0.8,0.4L25.5,44c-0.8,0.8-1.6,2-2,3.2c-0.7,2.6-0.6,5.7,0,8.7
		c1.2,6.1,3.8,12.1,6.7,18.1c5.9,11.9,13.5,23.5,21.6,35.2c12.9,18.2,27.5,36.5,43.1,54.7c4.3,5,8.7,10,13.1,15.1
		c4.1,4.6,8.2,9.3,12.5,13.9c11.1,12.3,22.7,24.6,34.5,36.9c28.6,29.7,58.9,59.1,90,87.9c0.5,0.5,1,0.9,1.5,1.4
		c48.2,44.7,98.1,87.5,147.1,124.8c0.1,0.1,0.2,0.1,0.3,0.2c10.4,7.9,20.8,15.6,31.1,23c14.1,10.1,28.2,19.5,42.1,28.1
		c12.1,7.5,24.2,14.4,36.2,20c6,2.8,12.1,5.4,18.2,7.2c6,1.8,12.4,3.2,17.8,1.9c2.7-0.7,4.6-2.4,5.5-4.9c0.8-2.4,0.8-5.3,0.4-8.1
		c-0.9-5.6-3.1-11-5.4-16.1c-4.7-10.2-10.3-19.4-15.8-27.8c-11.1-16.9-21.9-30.8-30.8-42.2c-5.3-6.7-10-12.4-14.1-17.3
		c0.9-1.4,1.8-2.8,2.7-4.3c4.8,4.6,10.5,10.3,16.9,17.2c10,10.7,22.2,23.8,34.7,40.5c6.3,8.3,12.8,17.4,18.7,28.3
		c3,5.6,5.8,11.5,7.5,19.5C560.3,513.2,561,518,559,524.6z"/>
</g>
</svg>
